<svg width="512" height="512" viewBox="0 0 512 512" fill="none" xmlns="http://www.w3.org/2000/svg">
  <rect width="512" height="512" rx="128" fill="#1B140E"/>
  <path d="M119 152C119 133.775 133.775 119 152 119H360C378.225 119 393 133.775 393 152V360C393 378.225 378.225 393 360 393H152C133.775 393 119 378.225 119 360V152Z" fill="#F7EFE2"/>
  <path d="M176 176H253.775C315.755 176 352 211.378 352 272.553C352 335.299 313.839 336 269.12 336H176V176Z" fill="#147C6D"/>
  <path d="M233.607 289.552H261.232C284.484 289.552 300.949 285.389 300.949 272.214C300.949 258.179 285.252 253.534 261.952 253.534H233.607V289.552Z" fill="#F7EFE2"/>
  <path d="M333 175L205 336H258L386 175H333Z" fill="#D86A33"/>
</svg>
